<svg width="44" height="38" viewBox="0 0 44 38" fill="none" xmlns="http://www.w3.org/2000/svg">
<path d="M1.19864 17.2019C1.32567 17.0745 1.49802 17.0031 1.67747 17.0031H10.0212C13.1877 17.0031 13.6107 16.6877 15.6453 15.1723C16.0791 14.8495 16.5703 14.4834 17.1696 14.0576C18.5624 13.0691 20.0673 12.3384 21.6524 11.8768L18.8503 7.00904C18.37 6.17482 18.2429 5.20081 18.4927 4.26669C18.7421 3.33258 19.3381 2.55281 20.1699 2.07107L21.1837 1.48359C22.9054 0.487019 25.1139 1.08039 26.1077 2.80699L31.7978 12.6896C32.5106 13.0247 33.2062 13.4196 33.8679 13.867L37.3643 16.2302C38.6996 17.1327 39.6128 18.2462 40.2388 19.7344L42.7932 25.8109C43.104 26.5502 43.063 27.4524 42.6803 28.2863C42.3378 29.0333 41.7545 29.648 41.0684 30.0027V36.0207C41.0684 36.2634 40.9395 36.4876 40.7296 36.6091C40.6247 36.6697 40.5076 36.7 40.3907 36.7C40.2739 36.7 40.1567 36.6694 40.0519 36.6091L33.9677 33.0864C33.8645 33.0267 33.7794 32.941 33.7196 32.8375L32.9839 31.5592C32.7745 32.9052 31.6109 33.9383 30.2111 33.9383C29.3602 33.9383 28.5965 33.5564 28.0813 32.9547C28.0347 33.0088 27.9863 33.0614 27.9354 33.1121C27.4042 33.6448 26.7 33.9383 25.9529 33.9383C25.0823 33.9383 24.2655 33.519 23.7398 32.8462C22.2697 33.6981 20.6131 34.2639 18.3417 34.2639H18.321L1.67769 34.2515C1.30339 34.2515 1.00031 33.9472 1.00031 33.5722L1 17.6825C1.00092 17.5025 1.07215 17.3297 1.19918 17.2023L1.19864 17.2019ZM24.9339 3.48659C24.3135 2.40936 22.935 2.03891 21.8608 2.661L20.847 3.24848C20.3287 3.54872 19.9569 4.0354 19.8008 4.61882C19.6448 5.2026 19.7241 5.8102 20.0231 6.32993L28.5974 21.2231C28.6387 21.2014 28.6803 21.1801 28.7222 21.1584C30.2531 20.3647 31.836 19.546 33.8413 18.9588L24.9339 3.48659ZM41.544 26.3388L38.9896 20.2624C38.4707 19.0286 37.7138 18.1057 36.6066 17.3571L33.1327 15.0087L35.3184 18.8048C35.803 18.8573 36.277 19.0107 36.7129 19.2633C37.5358 19.7395 38.1232 20.506 38.3677 21.4206C38.5854 22.2367 38.5009 23.0631 38.183 23.7804L40.891 28.4858C41.1195 28.2784 41.3128 28.0162 41.4491 27.719C41.6729 27.2305 41.7075 26.7271 41.5441 26.3387L41.544 26.3388ZM39.7135 30.1519L35.6619 32.4982L39.7135 34.8438V30.1519ZM34.5547 31.5699L39.4654 28.7265L37.3121 24.986C36.9106 25.3494 36.4207 25.6264 35.8635 25.777C34.3953 26.1922 33.1438 26.6811 32.0456 27.2107L34.5547 31.5699ZM30.2117 32.5798C31.0125 32.5798 31.6633 31.9264 31.6633 31.124V29.2654L30.8423 27.8397C30.0786 28.2701 29.3932 28.7175 28.7592 29.1677V31.0062C28.7592 31.026 28.758 31.0455 28.7565 31.065C28.7583 31.0848 28.7595 31.1042 28.7595 31.1247C28.7599 31.9264 29.411 32.5798 30.2117 32.5798ZM25.9532 32.5798C26.3386 32.5798 26.7027 32.4279 26.978 32.1518C27.2533 31.8757 27.4053 31.5105 27.4053 31.1241C27.4053 31.1043 27.4066 31.0848 27.4081 31.0653C27.4063 31.0455 27.405 31.0261 27.405 31.0056V30.1792C27.1726 30.3598 26.945 30.5388 26.7203 30.7156C26.0996 31.2045 25.5002 31.676 24.8872 32.1074C25.1583 32.4008 25.5446 32.5798 25.9531 32.5798L25.9532 32.5798ZM18.3234 32.9054H18.3413C21.7452 32.9054 23.5723 31.4669 25.8835 29.647C28.1676 27.848 30.7572 25.8095 35.4996 24.4685C35.5024 24.4675 35.5052 24.4672 35.508 24.4663C36.0679 24.3157 36.5384 23.9509 36.8334 23.4386C37.1285 22.9259 37.2084 22.3344 37.0585 21.7735C36.9081 21.2092 36.5442 20.7359 36.0349 20.4415C35.5271 20.1474 34.9381 20.068 34.377 20.2176C32.4235 20.7705 30.8584 21.5815 29.3449 22.366C27.0981 23.5304 24.7746 24.7348 21.3018 25.0019C20.9288 25.031 20.6035 24.7509 20.5748 24.3767C20.5461 24.0026 20.8252 23.6764 21.1982 23.6476C23.7546 23.451 25.6101 22.7157 27.3881 21.8394L22.3523 13.0927C20.7937 13.5043 19.3153 14.2006 17.9519 15.1675C17.3649 15.584 16.8805 15.9451 16.4529 16.2636C14.4555 17.7515 13.7433 18.2805 10.8053 18.3535V32.8952L18.3234 32.9054ZM2.35497 32.893H9.45012V18.3624H2.35497V32.893Z" fill="#CA3845" stroke="#CA3845"/>
</svg>
