<svg width="28" height="51" viewBox="0 0 28 51" fill="none" xmlns="http://www.w3.org/2000/svg">
<path d="M12.4386 38.3744V26.7489C8.81316 25.7152 6.15398 24.1422 4.4611 22.0448C2.76821 19.9474 1.92177 17.3931 1.92177 14.3969C1.92177 11.4006 2.88057 8.81635 4.79068 6.74893C6.7008 4.68152 9.25511 3.498 12.4386 3.18339V0.434326H16.4611V3.18339C19.4049 3.53545 21.742 4.53919 23.4798 6.19463C25.2177 7.85006 26.3263 10.0673 26.8132 12.8388L19.7944 13.7527C19.3675 11.5729 18.2589 10.0898 16.4611 9.31073V20.1647C20.9031 21.3707 23.9293 22.9287 25.5323 24.8388C27.1353 26.7489 27.9443 29.2059 27.9443 32.2096C27.9443 35.5579 26.933 38.3819 24.9031 40.674C22.8806 42.9662 20.0641 44.3744 16.4536 44.8912V50.0823H12.4311V45.0336C9.23264 44.6441 6.63338 43.453 4.63338 41.453C2.63338 39.453 1.35997 36.6366 0.805664 32.9886L8.04912 32.2096C8.34125 33.6927 8.90305 34.9662 9.71204 36.0373C10.5285 37.1085 11.4349 37.8875 12.4311 38.3669L12.4386 38.3744ZM12.4386 9.23582C11.345 9.60286 10.4761 10.2321 9.83189 11.1235C9.18769 12.0148 8.8581 12.9961 8.8581 14.0673C8.8581 15.0486 9.15024 15.9624 9.74949 16.8014C10.3413 17.6403 11.2401 18.322 12.4386 18.8388V9.23582ZM16.4611 38.7639C17.8469 38.5017 18.978 37.865 19.8469 36.8388C20.7158 35.8126 21.1502 34.6066 21.1502 33.2208C21.1502 31.9849 20.7832 30.9137 20.0566 30.0148C19.3225 29.116 18.1315 28.4268 16.4611 27.9474V38.7714V38.7639Z" fill="#1F231F"/>
</svg>
