<svg width="42" height="45" viewBox="0 0 42 45" fill="none" xmlns="http://www.w3.org/2000/svg">
<path d="M1.4795 23.3144H10.0398C10.8779 23.3144 11.4457 23.9786 11.4457 24.7945V25.7285H24.3763C27.4778 25.7285 29.1232 28.7189 28.2679 31.418H28.4591C29.9244 31.418 33.4611 27.3376 34.7422 25.9913C37.8137 22.9197 44.2875 27.4568 40.9734 32.189C38.4398 35.8951 35.9608 40.2096 31.3206 41.4571C27.6583 42.4356 15.6875 41.8416 11.4462 41.594V42.7503C11.4462 43.5876 10.7813 44.1555 9.96549 44.1555H1.40521C0.567844 44.1555 0 43.4913 0 42.6754V24.7207C0 23.8833 0.664182 23.314 1.48006 23.314L1.4795 23.3144ZM28.5488 4.34836H31.3721V5.73208C33.3216 6.09821 34.5643 7.36447 34.6348 9.40149L32.1244 9.49002C31.9036 8.15037 31.1904 7.68796 29.8688 7.68796C29.1468 7.68796 28.581 7.8361 28.1743 8.13839C27.636 8.52604 27.6554 9.24986 28.1486 9.66324C28.9834 10.3722 31.7964 10.6858 33.1396 11.3916C34.4165 12.0706 35.0005 13.1958 35.0005 14.6247C35.0005 16.127 34.1208 17.4334 32.7338 18.0055C32.3342 18.172 31.8817 18.2898 31.3716 18.3674V19.7226H28.5484V18.3304C26.3213 17.9128 25.1852 16.437 24.9195 14.2156L27.3621 13.9754C27.6429 15.5139 28.4546 16.3488 30.0612 16.3488C31.1173 16.3488 32.49 15.9164 32.49 14.6395C32.49 13.9048 31.9613 13.5771 31.3338 13.3542C29.8552 12.8311 27.6982 12.6495 26.524 11.5786C25.2835 10.4682 25.0112 8.69928 25.9219 7.3004C26.5131 6.38541 27.5028 5.91 28.5479 5.72552V4.34812L28.5488 4.34836ZM29.9616 0C36.6065 0 42 5.39247 42 12.0366C42 18.6774 36.6027 24.0742 29.9616 24.0742C23.3177 24.0742 17.924 18.6817 17.924 12.0366C17.924 5.38922 23.3137 0 29.9616 0ZM29.9616 2.81231C24.8605 2.81231 20.7368 6.93637 20.7368 12.0371C20.7368 17.1424 24.8559 21.2619 29.9616 21.2619C35.0676 21.2619 39.1872 17.1428 39.1872 12.0371C39.1872 6.86964 35.1814 2.81231 29.9616 2.81231ZM17.999 34.2295C16.1499 34.2295 16.1499 31.4172 17.999 31.4172H24.3035C26.2016 31.4172 26.1013 28.5404 24.3769 28.5404H11.4463V38.7765C15.4031 39.0167 27.242 39.6378 30.5975 38.7402C34.1857 37.7761 36.5292 33.7166 38.6184 30.66C40.0837 28.464 37.301 27.4037 36.7288 27.9772C34.6982 30.0068 31.3469 34.2303 28.46 34.2303H17.999L17.999 34.2295ZM8.63331 26.126H2.81265V41.342H8.63331V26.126Z" fill="#CA3845"/>
</svg>
