<svg width="157" height="24" viewBox="0 0 157 24" fill="none" xmlns="http://www.w3.org/2000/svg">
<g clip-path="url(#clip0_358_13193)">
<path d="M35.7251 17.5922L39.3855 21.2589C37.7971 22.8697 34.758 24.0005 32.03 24.0005C26.3319 24.0005 22.3262 20.1281 22.3262 14.6799C22.3262 9.23176 26.2281 5.46191 31.7536 5.46191C37.2792 5.46191 40.87 9.47098 40.87 16.2902H28.231C28.7488 17.9694 30.0614 19.0658 31.7532 19.0658C33.1 19.0658 34.5502 18.5174 35.7241 17.5922H35.7251ZM28.3353 12.829H34.8275C34.3439 11.3554 33.2043 10.3962 31.7541 10.3962C30.1657 10.3962 28.9222 11.3554 28.3353 12.829Z" fill="black"/>
<path d="M42.1474 21.3275L44.6339 17.3184C46.3604 18.5178 48.916 19.4085 50.815 19.4085C52.058 19.4085 52.5073 19.1003 52.5073 18.5178C52.5073 17.9009 51.4715 17.5581 49.8136 17.2158C46.5677 16.5303 42.9416 15.7422 42.9416 11.5615C42.9416 8.13494 45.7387 5.46191 50.4005 5.46191C53.1633 5.46191 55.8222 6.45567 57.8594 7.79218L55.615 11.8358C54.13 10.8765 52.0928 9.95083 50.4005 9.95083C49.4682 9.95083 48.8464 10.4307 48.8464 10.9446C48.8464 11.527 49.6406 11.6301 51.4363 12.0409C54.6821 12.7605 58.4116 13.8228 58.4116 18.0035C58.4116 21.6702 55.4763 24 50.6416 24C47.5339 24 44.3223 23.0063 42.1465 21.327L42.1474 21.3275Z" fill="black"/>
<path d="M60.1729 14.7135C60.1729 9.67614 64.7656 5.46143 70.2563 5.46143C75.7471 5.46143 80.3051 9.67614 80.3051 14.7135C80.3051 19.7508 75.7123 24 70.2563 24C64.8004 24 60.1729 19.7508 60.1729 14.7135ZM74.0892 14.7135C74.0892 12.6574 72.3278 10.9441 70.2559 10.9441C68.1839 10.9441 66.3883 12.6574 66.3883 14.7135C66.3883 16.7695 68.1496 18.5173 70.2559 18.5173C72.3621 18.5173 74.0892 16.7695 74.0892 14.7135Z" fill="black"/>
<path d="M101.232 12.3151V23.5892H94.8778V13.8573C94.8778 12.144 93.773 10.9446 92.1841 10.9446C90.6991 10.9446 89.6286 12.0754 89.6286 13.6516V23.5892H82.9639V5.87273H89.6286V7.65459C90.7334 6.28404 92.5295 5.46143 94.6701 5.46143C98.5034 5.46143 101.231 8.30559 101.231 12.3147L101.232 12.3151Z" fill="black"/>
<path d="M121.536 13.1373V23.5887H115.147V22.3208C113.939 23.4171 112.246 24 110.555 24C106.721 24 103.683 21.6698 103.683 18.3457C103.683 15.0217 107.067 12.4518 111.384 12.4518C112.557 12.4518 113.87 12.726 115.148 13.2399V13.1373C115.148 11.3895 113.559 10.3617 111.487 10.3617C109.795 10.3617 108.656 10.807 107.171 11.5611L105.134 7.55202C107.62 6.31857 110.279 5.46191 113.283 5.46191C117.807 5.46191 121.537 8.30608 121.537 13.1378L121.536 13.1373ZM115.147 18.3457V16.6665C114.526 16.3582 113.352 16.1181 112.315 16.1181C110.969 16.1181 110.002 16.9747 110.002 18.1741C110.002 19.305 110.9 20.0931 112.177 20.0931C113.766 20.0931 115.009 19.3735 115.147 18.3453L115.147 18.3457Z" fill="black"/>
<path d="M136.661 22.1842C135.557 23.2465 133.657 24.0005 132.069 24.0005C128.512 24.0005 126.026 21.5332 126.026 18.004V11.0812H123.781V5.87278H126.026V1.00659H132.38V5.87278H135.902V11.0812H132.38V16.701C132.38 17.7633 133.001 18.5174 133.899 18.5174C134.521 18.5174 135.177 18.3117 135.522 18.0035L136.662 22.1842H136.661Z" fill="black"/>
<path d="M151.855 17.5922L155.515 21.2589C153.926 22.8697 150.887 24.0005 148.159 24.0005C142.461 24.0005 138.456 20.1281 138.456 14.6799C138.456 9.23176 142.358 5.46191 147.884 5.46191C153.409 5.46191 157 9.47098 157 16.2902H144.361C144.879 17.9694 146.191 19.0658 147.883 19.0658C149.23 19.0658 150.68 18.5174 151.854 17.5922H151.855ZM144.465 12.829H150.957C150.473 11.3554 149.334 10.3962 147.884 10.3962C146.295 10.3962 145.052 11.3554 144.465 12.829Z" fill="black"/>
<path d="M16.0973 15.5573C18.9978 14.2208 20.7939 11.5823 20.7939 8.22425C20.7939 3.39257 17.0296 0 11.7118 0H7.09766V6.03108H11.1592C12.7476 6.03108 13.8872 6.95629 13.8872 8.22425C13.8872 9.49221 12.7476 10.4174 11.1592 10.4174H7.09766V16.4485H9.12198L14.1292 23.5419H21.761L16.0978 15.5578L16.0973 15.5573Z" fill="black"/>
<path d="M5.09584 8.48486H0.275391V23.5415H5.09584V8.48486Z" fill="#C93445"/>
<path d="M3.05292 6.399V6.92046H2.13533V6.37442C1.32636 6.26663 0.584095 5.96075 0 5.44732L0.900916 4.37982C1.48453 4.83509 2.11865 5.07526 2.79422 5.07526C3.23634 5.07526 3.46979 4.92633 3.46979 4.67813C3.46979 4.40487 3.26969 4.36374 2.4774 4.18173C1.23441 3.90043 0.275373 3.57753 0.275373 2.39372C0.275373 1.37491 1.00096 0.679944 2.13533 0.547096V0.0256348H3.05292V0.547096C3.80376 0.629831 4.42073 0.878033 4.93813 1.29218L4.12916 2.42587C3.59557 2.04529 3.01147 1.85477 2.49455 1.85477C2.10246 1.85477 1.91093 2.0122 1.91093 2.22731C1.91093 2.51712 2.11103 2.60789 2.92857 2.78186C4.26303 3.06316 5.09725 3.41915 5.09725 4.50368C5.09725 5.58821 4.30496 6.29972 3.05387 6.399H3.05292Z" fill="#C93445"/>
</g>
<defs>
<clipPath id="clip0_358_13193">
<rect width="157" height="24" fill="white"/>
</clipPath>
</defs>
</svg>
