<svg xmlns="http://www.w3.org/2000/svg" xmlns:xlink="http://www.w3.org/1999/xlink" width="366.75" height="79" viewBox="0 0 366.75 79">
  <defs>
    <linearGradient id="linear-gradient" x1="0.5" x2="0.5" y2="1" gradientUnits="objectBoundingBox">
      <stop offset="0" stop-color="#dfdfdf"/>
      <stop offset="1" stop-color="#b5b5b5"/>
    </linearGradient>
    <linearGradient id="linear-gradient-2" x1="-0.041" y1="0.595" x2="1.084" y2="0.616" gradientUnits="objectBoundingBox">
      <stop offset="0" stop-color="#e0e0e0"/>
      <stop offset="0.559" stop-color="#ececec"/>
      <stop offset="1" stop-color="#dfdfdf"/>
    </linearGradient>
    <filter id="Rectangle_10" x="0" y="1" width="81" height="78" filterUnits="userSpaceOnUse">
      <feOffset dy="1" input="SourceAlpha"/>
      <feGaussianBlur stdDeviation="2" result="blur"/>
      <feFlood flood-opacity="0.102"/>
      <feComposite operator="in" in2="blur"/>
      <feComposite in="SourceGraphic"/>
    </filter>
  </defs>
  <g id="iresonate_2" transform="translate(-18537 -1738)">
    <g id="iresonate_2-2" data-name="iresonate_2" transform="translate(-83.363 1163.003)">
      <g id="Group_334" data-name="Group 334" transform="translate(18720.465 593.997)">
        <path id="Path_393" data-name="Path 393" d="M799.419,1104.656H781.507a1.882,1.882,0,0,0-1.482,3.052,7.27,7.27,0,0,0,1.441,1.33,9.553,9.553,0,0,0,5.66,1.609,11.456,11.456,0,0,0,4.138-.695,9.392,9.392,0,0,0,2.1-1.142,1.872,1.872,0,0,1,2.464.26l2.163,2.345a1.889,1.889,0,0,1-.166,2.719q-4.073,3.448-10.919,3.448a19.484,19.484,0,0,1-8.935-1.97,14.429,14.429,0,0,1-5.994-5.468,15.053,15.053,0,0,1-2.109-7.936,15.26,15.26,0,0,1,2.081-7.906,14.584,14.584,0,0,1,5.716-5.494,17.7,17.7,0,0,1,16.067-.083,13.779,13.779,0,0,1,5.578,5.411,16.143,16.143,0,0,1,2.026,8.185q0,.074-.035.579A1.886,1.886,0,0,1,799.419,1104.656Zm-18.508-9.6a6.624,6.624,0,0,0-1.5,1.773,1.875,1.875,0,0,0,1.661,2.774h9.484a1.872,1.872,0,0,0,1.657-2.777,6.854,6.854,0,0,0-1.478-1.746,7.3,7.3,0,0,0-4.884-1.692,7.455,7.455,0,0,0-4.94,1.67Z" transform="translate(-731.447 -1077.773)" fill="#fff"/>
        <path id="Path_394" data-name="Path 394" d="M830.341,1116.67a23.2,23.2,0,0,1-3.969-1.371,1.95,1.95,0,0,1-.921-2.592l1.236-2.66a1.968,1.968,0,0,1,2.628-.939,20.641,20.641,0,0,0,3.078,1.126,20.209,20.209,0,0,0,5.549.805q5.494,0,5.494-2.72a1.926,1.926,0,0,0-1.5-1.831,22.274,22.274,0,0,0-4.606-.943,44.405,44.405,0,0,1-6.048-1.277,9.385,9.385,0,0,1-4.138-2.552,7.263,7.263,0,0,1-1.748-5.218,8.174,8.174,0,0,1,1.637-5.025,10.539,10.539,0,0,1,4.773-3.413,20.407,20.407,0,0,1,7.409-1.22,29.129,29.129,0,0,1,6.3.693,21.2,21.2,0,0,1,3.364,1.019,1.951,1.951,0,0,1,1.009,2.639l-1.221,2.609a1.943,1.943,0,0,1-2.512.984,17.372,17.372,0,0,0-6.939-1.4,8.753,8.753,0,0,0-4.163.777,2.285,2.285,0,0,0-1.388,2,1.983,1.983,0,0,0,1.5,1.943,26.547,26.547,0,0,0,4.773,1.055,51.234,51.234,0,0,1,5.994,1.3,9.02,9.02,0,0,1,4.051,2.525,7.168,7.168,0,0,1,1.72,5.106,7.884,7.884,0,0,1-1.665,4.939,10.63,10.63,0,0,1-4.856,3.357,21.634,21.634,0,0,1-7.575,1.193A29,29,0,0,1,830.341,1116.67Z" transform="translate(-751.911 -1077.772)" fill="#fff"/>
        <path id="Path_395" data-name="Path 395" d="M880.087,1115.623a14.637,14.637,0,0,1-5.855-5.468,15.987,15.987,0,0,1,0-15.872,14.636,14.636,0,0,1,5.855-5.468,19.1,19.1,0,0,1,16.9,0,14.692,14.692,0,0,1,5.827,5.468,15.986,15.986,0,0,1,0,15.872,14.693,14.693,0,0,1-5.827,5.468A19.1,19.1,0,0,1,880.087,1115.623Zm13.93-7.381a9.552,9.552,0,0,0,0-12.045,7.213,7.213,0,0,0-5.468-2.249,7.3,7.3,0,0,0-5.494,2.249,9.458,9.458,0,0,0,0,12.045,7.3,7.3,0,0,0,5.494,2.248,7.215,7.215,0,0,0,5.467-2.249Z" transform="translate(-769.218 -1077.774)" fill="#fff"/>
        <path id="Path_396" data-name="Path 396" d="M960.392,1090.174q3.413,3.325,3.413,9.878v16a1.089,1.089,0,0,1-1.088,1.089h-6.482a1.088,1.088,0,0,1-1.088-1.089v-14.673a7.791,7.791,0,0,0-1.552-5.3,5.7,5.7,0,0,0-4.495-1.748,6.892,6.892,0,0,0-5.217,2.025q-1.943,2.027-1.942,6.021v13.67a1.089,1.089,0,0,1-1.088,1.088h-6.482a1.088,1.088,0,0,1-1.088-1.088v-27.673a1.088,1.088,0,0,1,1.088-1.088h6.091a1.088,1.088,0,0,1,1.089,1.088h0a1.083,1.083,0,0,0,1.7.9,12.162,12.162,0,0,1,2.574-1.4,14.893,14.893,0,0,1,5.606-1.026A12.31,12.31,0,0,1,960.392,1090.174Z" transform="translate(-791.81 -1077.774)" fill="#fff"/>
        <path id="Path_397" data-name="Path 397" d="M1015.644,1090.142q3.718,3.3,3.718,9.962v16.035a1,1,0,0,1-1,1h-6.1a1,1,0,0,1-1-1h0a1,1,0,0,0-1.633-.768q-2.613,2.212-7.468,2.213a14.134,14.134,0,0,1-5.965-1.165,8.889,8.889,0,0,1-3.857-3.22,8.372,8.372,0,0,1-1.33-4.661,7.781,7.781,0,0,1,3.135-6.549q3.136-2.384,9.685-2.386h5.811a1.01,1.01,0,0,0,.988-1.172,5.088,5.088,0,0,0-1.639-3.185,7.568,7.568,0,0,0-5.16-1.526,15.064,15.064,0,0,0-4.689.748,13.228,13.228,0,0,0-3.011,1.387,1,1,0,0,1-1.426-.381l-2.172-4.228a1.007,1.007,0,0,1,.37-1.318,19.556,19.556,0,0,1,5.071-2.147,26.23,26.23,0,0,1,7.02-.944Q1011.927,1086.847,1015.644,1090.142Zm-7.381,20.588a5.581,5.581,0,0,0,2.373-2.84,1.036,1.036,0,0,0,.069-.379v-1.857a1,1,0,0,0-1-1h-4.938q-5.328,0-5.328,3.5a3.111,3.111,0,0,0,1.3,2.636,5.866,5.866,0,0,0,3.579.971,7.537,7.537,0,0,0,3.946-1.021Z" transform="translate(-813.129 -1077.772)" fill="#fff"/>
        <path id="Path_398" data-name="Path 398" d="M1065.222,1111.2a1.162,1.162,0,0,1-.5,1.435,9.727,9.727,0,0,1-2.291.875,15.874,15.874,0,0,1-3.913.471q-5.328,0-8.241-2.72t-2.914-7.992v-11.091a1.173,1.173,0,0,0-1.173-1.173h-2.26a1.174,1.174,0,0,1-1.173-1.173v-4.32a1.173,1.173,0,0,1,1.173-1.173h2.26a1.173,1.173,0,0,0,1.173-1.173v-4.924a1.173,1.173,0,0,1,1.173-1.173h6.311a1.173,1.173,0,0,1,1.173,1.173v4.923a1.173,1.173,0,0,0,1.173,1.173h5.091a1.173,1.173,0,0,1,1.173,1.173v4.313a1.173,1.173,0,0,1-1.173,1.173h-5.091a1.173,1.173,0,0,0-1.173,1.173v10.98a4.075,4.075,0,0,0,.971,2.914,3.6,3.6,0,0,0,2.747,1.026,5.992,5.992,0,0,0,2.4-.463,1.182,1.182,0,0,1,1.591.642Z" transform="translate(-832.244 -1074.165)" fill="#fff"/>
        <path id="Path_399" data-name="Path 399" d="M1111.42,1104.656h-17.913a1.882,1.882,0,0,0-1.482,3.052,7.268,7.268,0,0,0,1.441,1.33,9.551,9.551,0,0,0,5.66,1.609,11.453,11.453,0,0,0,4.138-.695,9.393,9.393,0,0,0,2.1-1.142,1.872,1.872,0,0,1,2.464.26l2.163,2.345a1.888,1.888,0,0,1-.166,2.719q-4.073,3.448-10.919,3.449a19.484,19.484,0,0,1-8.934-1.97,14.426,14.426,0,0,1-5.994-5.468,15.052,15.052,0,0,1-2.109-7.936,15.259,15.259,0,0,1,2.081-7.906,14.581,14.581,0,0,1,5.716-5.494,17.7,17.7,0,0,1,16.067-.083,13.779,13.779,0,0,1,5.577,5.411,16.143,16.143,0,0,1,2.026,8.185q0,.074-.036.579a1.886,1.886,0,0,1-1.881,1.755Zm-18.508-9.6a6.621,6.621,0,0,0-1.5,1.773,1.875,1.875,0,0,0,1.661,2.774h9.484a1.872,1.872,0,0,0,1.657-2.777,6.855,6.855,0,0,0-1.478-1.746,7.3,7.3,0,0,0-4.884-1.692,7.456,7.456,0,0,0-4.942,1.67Z" transform="translate(-846.692 -1077.773)" fill="#fff"/>
        <g id="Group_333" data-name="Group 333" transform="translate(0 0)">
          <g id="Group_325" data-name="Group 325" transform="translate(9.495 0)">
            <path id="Path_391" data-name="Path 391" d="M740.617,1099.786a.306.306,0,0,1,.126-.452,12.931,12.931,0,0,0,7.854-12.419,13.807,13.807,0,0,0-2.1-7.681,13.663,13.663,0,0,0-6-5,22.156,22.156,0,0,0-9.187-1.763h-6.34a.961.961,0,0,0-.961.961v5.533a.961.961,0,0,0,.948.961l5.837.059q4.151,0,6.313,1.793a7.174,7.174,0,0,1,0,10.265q-2.161,1.82-6.313,1.821h-5.828a.961.961,0,0,0-.961.961v5.422a.961.961,0,0,0,.961.961h6.279a.991.991,0,0,1,.817.428l6.3,9.1a3.624,3.624,0,0,0,2.985,1.567h6.088a.993.993,0,0,0,.813-1.56Z" transform="translate(-724.003 -1072.462)" fill="#fff"/>
          </g>
          <rect id="Rectangle_6092" data-name="Rectangle 6092" width="7.378" height="26.523" rx="1.809" transform="translate(0 13.209)" fill="#fff"/>
          <g id="Group_326" data-name="Group 326" transform="translate(0.134 0.027)">
            <path id="Path_392" data-name="Path 392" d="M712.8,1083.888h-.064c-.333,0-.556-.174-.556-.436v-1.245c-2.083-.112-3.022-.859-3.022-2.069v-.324c0-.137.1-.222.286-.222h.732c.159,0,.27.074.27.212v.324c0,.871.716,1.282,2.291,1.282,1.543,0,2.305-.423,2.305-1.306v-.249c0-.822-.509-1-1.447-1.12l-1.94-.262c-1.622-.222-2.417-.66-2.417-2v-.212c0-1.282.923-2.091,2.942-2.217v-1.109c0-.261.222-.436.556-.436h.064c.333,0,.556.174.556.436v1.12c1.972.112,2.863.846,2.863,2.029v.261c0,.148-.112.222-.287.222h-.716c-.191,0-.3-.074-.3-.212v-.262c0-.859-.652-1.256-2.178-1.256-1.495,0-2.21.423-2.21,1.307v.222c0,.822.493,1,1.431,1.12l1.955.261c1.606.212,2.433.66,2.433,2v.211c0,1.283-.97,2.1-2.989,2.229v1.256C713.356,1083.719,713.134,1083.888,712.8,1083.888Z" transform="translate(-709.158 -1072.505)" fill="#fff" stroke="#fff" stroke-miterlimit="10" stroke-width="1.5"/>
          </g>
        </g>
      </g>
    </g>
    <g id="Group_342" data-name="Group 342" transform="translate(18327.197 1166.064)">
      <rect id="Rectangle_5947" data-name="Rectangle 5947" width="79" height="78" rx="8" transform="translate(210.803 571.936)" fill="url(#linear-gradient)"/>
      <g transform="matrix(1, 0, 0, 1, 209.8, 571.94)" filter="url(#Rectangle_10)">
        <g id="Rectangle_10-2" data-name="Rectangle 10" transform="translate(6 6)" stroke="#f8f8f8" stroke-width="1" fill="url(#linear-gradient-2)">
          <rect width="69" height="66" rx="6" stroke="none"/>
          <rect x="0.5" y="0.5" width="68" height="65" rx="5.5" fill="none"/>
        </g>
      </g>
      <text id="_" data-name="$" transform="translate(238.803 625.936)" fill="#1a1818" font-size="43" font-family="Arial-BoldMT, Arial" font-weight="700"><tspan x="0" y="0">$</tspan></text>
    </g>
  </g>
</svg>
