<svg width="42" height="33" viewBox="0 0 42 33" fill="none" xmlns="http://www.w3.org/2000/svg">
<path d="M3.26657 0C1.48108 0 0 1.48108 0 3.26657V29.3998C0 31.1853 1.48108 32.6663 3.26657 32.6663H34.0664C34.4411 32.6715 34.8024 32.5264 35.069 32.2633C35.3359 32.0003 35.4863 31.6409 35.4863 31.2663C35.4863 30.8916 35.3359 30.5325 35.069 30.2692C34.8024 30.0062 34.4411 29.861 34.0664 29.8662H3.26657C2.98402 29.8662 2.80009 29.6823 2.80009 29.3997V10.2665H39.1999V29.3997C39.1999 29.6823 39.016 29.8662 38.7334 29.8662C38.3588 29.861 37.9974 30.0062 37.7305 30.2692C37.4636 30.5325 37.3135 30.8916 37.3135 31.2663C37.3135 31.6409 37.4636 32.0003 37.7305 32.2633C37.9974 32.5264 38.3588 32.6715 38.7334 32.6663C40.5189 32.6663 42 31.1853 42 29.3998V3.26657C42 1.48108 40.5189 0 38.7334 0H3.26657ZM3.26657 2.80015H38.733C39.0156 2.80015 39.1995 2.98407 39.1995 3.26662V7.46677H2.79971V3.26662C2.79971 2.98408 2.98363 2.80015 3.26618 2.80015H3.26657ZM5.59989 3.7334C4.82678 3.7334 4.19981 4.36002 4.19981 5.13347C4.19981 5.90658 4.82676 6.53322 5.59989 6.53322C6.37299 6.53322 6.99996 5.90659 6.99996 5.13347C6.99996 4.36004 6.37302 3.7334 5.59989 3.7334ZM9.33329 3.7334C8.56018 3.7334 7.93321 4.36002 7.93321 5.13347C7.93321 5.90658 8.56016 6.53322 9.33329 6.53322C10.1064 6.53322 10.7334 5.90659 10.7334 5.13347C10.7334 4.36004 10.1064 3.7334 9.33329 3.7334ZM13.0667 3.7334C12.2936 3.7334 11.6666 4.36002 11.6666 5.13347C11.6666 5.90658 12.2936 6.53322 13.0667 6.53322C13.8398 6.53322 14.4668 5.90659 14.4668 5.13347C14.4668 4.36004 13.8398 3.7334 13.0667 3.7334ZM5.45405 11.6666C5.10868 11.7027 4.78902 11.8661 4.55723 12.1249C4.32544 12.3837 4.19818 12.7193 4.1998 13.0667V27.0666C4.20013 27.4377 4.34759 27.7938 4.60996 28.0565C4.87265 28.3189 5.22877 28.4664 5.59987 28.4667H23.7998C24.1709 28.4664 24.527 28.3189 24.7897 28.0565C25.0521 27.7938 25.1995 27.4377 25.1995 27.0666V13.0667C25.1995 12.6953 25.0521 12.3391 24.7897 12.0768C24.527 11.8141 24.1709 11.6666 23.7998 11.6666H5.59987C5.55137 11.664 5.50255 11.664 5.45405 11.6666ZM27.8973 11.6666C27.5441 11.6923 27.2137 11.8512 26.9728 12.1109C26.7319 12.371 26.5984 12.7122 26.5994 13.0667V18.6666C26.5994 19.038 26.7469 19.3938 27.0096 19.6565C27.2723 19.9192 27.628 20.0666 27.9995 20.0666H36.3994C36.7705 20.0666 37.1266 19.9192 37.3893 19.6565C37.6517 19.3938 37.7992 19.038 37.7995 18.6666V13.0667C37.8011 12.7193 37.6739 12.3837 37.4421 12.1249C37.2103 11.8661 36.8906 11.7027 36.5452 11.6666C36.4967 11.664 36.4479 11.664 36.3994 11.6666H27.9995C27.9656 11.6653 27.9315 11.6653 27.8973 11.6666ZM6.99988 14.4668H22.3998V25.6667H6.99988V14.4668ZM29.3998 14.4668H34.9997V17.2666H29.3998V14.4668ZM27.8539 21.4667C27.4824 21.4859 27.1341 21.6519 26.8851 21.928C26.6361 22.2044 26.5072 22.5683 26.5264 22.9394C26.5459 23.3108 26.7119 23.6594 26.9883 23.9081C27.2647 24.1572 27.6283 24.2861 27.9997 24.2665H36.3997C36.7743 24.2717 37.1357 24.1269 37.4022 23.8636C37.6692 23.6005 37.8196 23.2415 37.8196 22.8665C37.8196 22.4918 37.6692 22.1328 37.4022 21.8697C37.1357 21.6064 36.7743 21.4612 36.3997 21.4667H27.9997C27.9512 21.4641 27.9024 21.4641 27.8539 21.4667ZM27.8539 25.6665C27.4824 25.6857 27.1341 25.8518 26.8851 26.1281C26.6361 26.4042 26.5072 26.7681 26.5264 27.1395C26.5459 27.5109 26.7119 27.8593 26.9883 28.1083C27.2647 28.357 27.6283 28.4859 27.9997 28.4667H36.3997C36.7743 28.4719 37.1357 28.3267 37.4022 28.0637C37.6692 27.8003 37.8196 27.4413 37.8196 27.0666C37.8196 26.6919 37.6692 26.3326 37.4022 26.0695C37.1357 25.8065 36.7743 25.6613 36.3997 25.6665H27.9997C27.9512 25.6639 27.9024 25.6639 27.8539 25.6665Z" fill="#CA3845"/>
</svg>
