<svg xmlns="http://www.w3.org/2000/svg" xmlns:xlink="http://www.w3.org/1999/xlink" width="1159.531" height="115.254" viewBox="0 0 1159.531 115.254">
  <defs>
    <filter id="Path_375" x="0" y="4.102" width="149.793" height="110.37" filterUnits="userSpaceOnUse">
      <feOffset dy="6" input="SourceAlpha"/>
      <feGaussianBlur stdDeviation="7" result="blur"/>
      <feFlood flood-opacity="0.278"/>
      <feComposite operator="in" in2="blur"/>
      <feComposite in="SourceGraphic"/>
    </filter>
    <filter id="Path_376" x="173.982" y="0" width="57.238" height="114.473" filterUnits="userSpaceOnUse">
      <feOffset dy="6" input="SourceAlpha"/>
      <feGaussianBlur stdDeviation="7" result="blur-2"/>
      <feFlood flood-opacity="0.278"/>
      <feComposite operator="in" in2="blur-2"/>
      <feComposite in="SourceGraphic"/>
    </filter>
    <filter id="Path_377" x="199.473" y="19.144" width="93.939" height="96.11" filterUnits="userSpaceOnUse">
      <feOffset dy="6" input="SourceAlpha"/>
      <feGaussianBlur stdDeviation="7" result="blur-3"/>
      <feFlood flood-opacity="0.278"/>
      <feComposite operator="in" in2="blur-3"/>
      <feComposite in="SourceGraphic"/>
    </filter>
    <filter id="Path_378" x="256.514" y="19.144" width="99.725" height="96.11" filterUnits="userSpaceOnUse">
      <feOffset dy="6" input="SourceAlpha"/>
      <feGaussianBlur stdDeviation="7" result="blur-4"/>
      <feFlood flood-opacity="0.278"/>
      <feComposite operator="in" in2="blur-4"/>
      <feComposite in="SourceGraphic"/>
    </filter>
    <filter id="Path_379" x="324.396" y="19.144" width="130.605" height="95.329" filterUnits="userSpaceOnUse">
      <feOffset dy="6" input="SourceAlpha"/>
      <feGaussianBlur stdDeviation="7" result="blur-5"/>
      <feFlood flood-opacity="0.278"/>
      <feComposite operator="in" in2="blur-5"/>
      <feComposite in="SourceGraphic"/>
    </filter>
    <filter id="Path_380" x="553.627" y="19.144" width="99.725" height="96.11" filterUnits="userSpaceOnUse">
      <feOffset dy="6" input="SourceAlpha"/>
      <feGaussianBlur stdDeviation="7" result="blur-6"/>
      <feFlood flood-opacity="0.278"/>
      <feComposite operator="in" in2="blur-6"/>
      <feComposite in="SourceGraphic"/>
    </filter>
    <filter id="Path_381" x="715.861" y="19.144" width="97.381" height="96.11" filterUnits="userSpaceOnUse">
      <feOffset dy="6" input="SourceAlpha"/>
      <feGaussianBlur stdDeviation="7" result="blur-7"/>
      <feFlood flood-opacity="0.278"/>
      <feComposite operator="in" in2="blur-7"/>
      <feComposite in="SourceGraphic"/>
    </filter>
    <filter id="Path_382" x="421.734" y="19.144" width="97.379" height="96.11" filterUnits="userSpaceOnUse">
      <feOffset dy="6" input="SourceAlpha"/>
      <feGaussianBlur stdDeviation="7" result="blur-8"/>
      <feFlood flood-opacity="0.278"/>
      <feComposite operator="in" in2="blur-8"/>
      <feComposite in="SourceGraphic"/>
    </filter>
    <filter id="Path_383" x="109.85" y="19.144" width="97.379" height="96.11" filterUnits="userSpaceOnUse">
      <feOffset dy="6" input="SourceAlpha"/>
      <feGaussianBlur stdDeviation="7" result="blur-9"/>
      <feFlood flood-opacity="0.278"/>
      <feComposite operator="in" in2="blur-9"/>
      <feComposite in="SourceGraphic"/>
    </filter>
    <filter id="Path_384" x="777.35" y="19.144" width="88.535" height="96.11" filterUnits="userSpaceOnUse">
      <feOffset dy="6" input="SourceAlpha"/>
      <feGaussianBlur stdDeviation="7" result="blur-10"/>
      <feFlood flood-opacity="0.278"/>
      <feComposite operator="in" in2="blur-10"/>
      <feComposite in="SourceGraphic"/>
    </filter>
    <filter id="Path_385" x="829.355" y="19.144" width="99.725" height="96.11" filterUnits="userSpaceOnUse">
      <feOffset dy="6" input="SourceAlpha"/>
      <feGaussianBlur stdDeviation="7" result="blur-11"/>
      <feFlood flood-opacity="0.278"/>
      <feComposite operator="in" in2="blur-11"/>
      <feComposite in="SourceGraphic"/>
    </filter>
    <filter id="Path_386" x="897.234" y="19.144" width="95.721" height="95.329" filterUnits="userSpaceOnUse">
      <feOffset dy="6" input="SourceAlpha"/>
      <feGaussianBlur stdDeviation="7" result="blur-12"/>
      <feFlood flood-opacity="0.278"/>
      <feComposite operator="in" in2="blur-12"/>
      <feComposite in="SourceGraphic"/>
    </filter>
    <filter id="Path_387" x="961.309" y="19.144" width="91.91" height="96.11" filterUnits="userSpaceOnUse">
      <feOffset dy="6" input="SourceAlpha"/>
      <feGaussianBlur stdDeviation="7" result="blur-13"/>
      <feFlood flood-opacity="0.278"/>
      <feComposite operator="in" in2="blur-13"/>
      <feComposite in="SourceGraphic"/>
    </filter>
    <filter id="Path_388" x="1018.74" y="8.301" width="81.68" height="106.953" filterUnits="userSpaceOnUse">
      <feOffset dy="6" input="SourceAlpha"/>
      <feGaussianBlur stdDeviation="7" result="blur-14"/>
      <feFlood flood-opacity="0.278"/>
      <feComposite operator="in" in2="blur-14"/>
      <feComposite in="SourceGraphic"/>
    </filter>
    <filter id="Path_389" x="1062.152" y="19.144" width="97.379" height="96.11" filterUnits="userSpaceOnUse">
      <feOffset dy="6" input="SourceAlpha"/>
      <feGaussianBlur stdDeviation="7" result="blur-15"/>
      <feFlood flood-opacity="0.278"/>
      <feComposite operator="in" in2="blur-15"/>
      <feComposite in="SourceGraphic"/>
    </filter>
    <filter id="Path_390" x="512.621" y="8.301" width="81.68" height="106.953" filterUnits="userSpaceOnUse">
      <feOffset dy="6" input="SourceAlpha"/>
      <feGaussianBlur stdDeviation="7" result="blur-16"/>
      <feFlood flood-opacity="0.278"/>
      <feComposite operator="in" in2="blur-16"/>
      <feComposite in="SourceGraphic"/>
    </filter>
    <filter id="Path_391" x="664.965" y="3.181" width="85.273" height="112.073" filterUnits="userSpaceOnUse">
      <feOffset dy="6" input="SourceAlpha"/>
      <feGaussianBlur stdDeviation="7" result="blur-17"/>
      <feFlood flood-opacity="0.278"/>
      <feComposite operator="in" in2="blur-17"/>
      <feComposite in="SourceGraphic"/>
    </filter>
    <filter id="Rectangle_6092" x="648.242" y="26.426" width="54.986" height="88.68" filterUnits="userSpaceOnUse">
      <feOffset dy="6" input="SourceAlpha"/>
      <feGaussianBlur stdDeviation="7" result="blur-18"/>
      <feFlood flood-opacity="0.278"/>
      <feComposite operator="in" in2="blur-18"/>
      <feComposite in="SourceGraphic"/>
    </filter>
    <filter id="Path_392" x="647.729" y="2.486" width="56.15" height="63.527" filterUnits="userSpaceOnUse">
      <feOffset dy="6" input="SourceAlpha"/>
      <feGaussianBlur stdDeviation="7" result="blur-19"/>
      <feFlood flood-opacity="0.278"/>
      <feComposite operator="in" in2="blur-19"/>
      <feComposite in="SourceGraphic"/>
    </filter>
  </defs>
  <g id="welcome_to_iresonate" transform="translate(-103.895 -1054.599)">
    <g transform="matrix(1, 0, 0, 1, 103.89, 1054.6)" filter="url(#Path_375)">
      <path id="Path_375-2" data-name="Path 375" d="M232.587,1075.891,211.516,1140.3a1.982,1.982,0,0,1-1.882,1.365H195.514a1.98,1.98,0,0,1-1.883-1.37l-12.744-39.222a1.981,1.981,0,0,0-3.761-.018l-13.168,39.257a1.98,1.98,0,0,1-1.878,1.352H148.04a1.98,1.98,0,0,1-1.881-1.363l-21.164-64.408a1.981,1.981,0,0,1,1.882-2.6h12.229a1.981,1.981,0,0,1,1.886,1.375l13.146,40.933a1.981,1.981,0,0,0,3.764.024l13.744-40.982a1.98,1.98,0,0,1,1.878-1.351h11.784a1.981,1.981,0,0,1,1.885,1.373l13.317,41.282a1.981,1.981,0,0,0,3.767.01l13.573-41.3a1.982,1.982,0,0,1,1.882-1.362H230.7A1.98,1.98,0,0,1,232.587,1075.891Z" transform="translate(-103.89 -1054.19)"/>
    </g>
    <g transform="matrix(1, 0, 0, 1, 103.89, 1054.6)" filter="url(#Path_376)">
      <path id="Path_376-2" data-name="Path 376" d="M284.751,1069.6h9.031a3.1,3.1,0,0,1,3.1,3.1v66.267a3.1,3.1,0,0,1-3.1,3.1h-9.031a3.1,3.1,0,0,1-3.1-3.1V1072.7A3.1,3.1,0,0,1,284.751,1069.6Z" transform="translate(-86.67 -1054.6)"/>
    </g>
    <g transform="matrix(1, 0, 0, 1, 103.89, 1054.6)" filter="url(#Path_377)">
      <path id="Path_377-2" data-name="Path 377" d="M318.826,1137.49a25.945,25.945,0,0,1-10.451-9.621,27.819,27.819,0,0,1,0-27.934,25.945,25.945,0,0,1,10.451-9.621,32.316,32.316,0,0,1,15.09-3.467,29.256,29.256,0,0,1,14.5,3.467,20.565,20.565,0,0,1,7.752,7.43,2.664,2.664,0,0,1-1.019,3.719l-7.431,3.993a2.613,2.613,0,0,1-3.332-.8,12.53,12.53,0,0,0-10.572-5.311,13.375,13.375,0,0,0-9.865,3.908q-3.909,3.907-3.907,10.646t3.907,10.645a13.365,13.365,0,0,0,9.865,3.908,12.451,12.451,0,0,0,10.6-5.311,2.685,2.685,0,0,1,3.446-.7l7.292,3.978a2.625,2.625,0,0,1,1.033,3.646,21.173,21.173,0,0,1-7.766,7.377,28.923,28.923,0,0,1-14.5,3.516A32.3,32.3,0,0,1,318.826,1137.49Z" transform="translate(-84.14 -1052.7)"/>
    </g>
    <g transform="matrix(1, 0, 0, 1, 103.89, 1054.6)" filter="url(#Path_378)">
      <path id="Path_378-2" data-name="Path 378" d="M370.024,1137.49a25.762,25.762,0,0,1-10.3-9.621,28.136,28.136,0,0,1,0-27.934,25.761,25.761,0,0,1,10.3-9.621,33.623,33.623,0,0,1,29.741,0,25.876,25.876,0,0,1,10.256,9.621,28.136,28.136,0,0,1,0,27.934,25.876,25.876,0,0,1-10.256,9.621,33.621,33.621,0,0,1-29.741,0Zm24.516-12.99q3.758-3.956,3.759-10.6t-3.759-10.6a12.7,12.7,0,0,0-9.621-3.957,12.847,12.847,0,0,0-9.669,3.957q-3.809,3.956-3.81,10.6t3.81,10.6a12.85,12.85,0,0,0,9.669,3.956A12.7,12.7,0,0,0,394.54,1124.5Z" transform="translate(-78.49 -1052.7)"/>
    </g>
    <g transform="matrix(1, 0, 0, 1, 103.89, 1054.6)" filter="url(#Path_379)">
      <path id="Path_379-2" data-name="Path 379" d="M499.974,1092.658q5.8,5.81,5.8,17.434v28.226a1.854,1.854,0,0,1-1.852,1.857h-11.5a1.854,1.854,0,0,1-1.852-1.857v-25.883q0-6.25-2.584-9.328a9.072,9.072,0,0,0-7.359-3.076,10.835,10.835,0,0,0-8.481,3.467q-3.12,3.468-3.119,10.3v24.515a1.855,1.855,0,0,1-1.852,1.857h-11.5a1.855,1.855,0,0,1-1.852-1.857v-25.883q0-12.4-9.943-12.4a10.72,10.72,0,0,0-8.383,3.467q-3.12,3.468-3.119,10.3v24.515a1.854,1.854,0,0,1-1.852,1.857h-11.5a1.854,1.854,0,0,1-1.852-1.857v-48.834a1.855,1.855,0,0,1,1.852-1.857h10.819a1.855,1.855,0,0,1,1.852,1.857h0a1.844,1.844,0,0,0,2.92,1.511,19.753,19.753,0,0,1,4.244-2.391,24.07,24.07,0,0,1,9.31-1.758,22.522,22.522,0,0,1,10.039,2.2,17.764,17.764,0,0,1,5.894,4.606,1.86,1.86,0,0,0,2.785.112,21.781,21.781,0,0,1,6.675-4.67,25.639,25.639,0,0,1,10.771-2.245Q494.173,1086.847,499.974,1092.658Z" transform="translate(-71.77 -1052.7)"/>
    </g>
    <g transform="matrix(1, 0, 0, 1, 103.89, 1054.6)" filter="url(#Path_380)">
      <path id="Path_380-2" data-name="Path 380" d="M637.716,1137.49a25.762,25.762,0,0,1-10.3-9.621,28.136,28.136,0,0,1,0-27.934,25.761,25.761,0,0,1,10.3-9.621,33.623,33.623,0,0,1,29.741,0,25.86,25.86,0,0,1,10.255,9.621,28.135,28.135,0,0,1,0,27.934,25.861,25.861,0,0,1-10.255,9.621,33.621,33.621,0,0,1-29.741,0Zm24.516-12.99q3.759-3.956,3.76-10.6t-3.76-10.6a12.693,12.693,0,0,0-9.621-3.957,12.848,12.848,0,0,0-9.669,3.957q-3.809,3.956-3.809,10.6t3.809,10.6a12.852,12.852,0,0,0,9.669,3.956A12.7,12.7,0,0,0,662.232,1124.5Z" transform="translate(-49.07 -1052.7)"/>
    </g>
    <g transform="matrix(1, 0, 0, 1, 103.89, 1054.6)" filter="url(#Path_381)">
      <path id="Path_381-2" data-name="Path 381" d="M821.878,1118.2H790.353a3.313,3.313,0,0,0-2.608,5.371,12.794,12.794,0,0,0,2.536,2.345,16.814,16.814,0,0,0,9.961,2.833,20.16,20.16,0,0,0,7.278-1.222,16.533,16.533,0,0,0,3.7-2.009,3.3,3.3,0,0,1,4.336.457l3.807,4.128a3.324,3.324,0,0,1-.292,4.786q-7.169,6.068-19.218,6.069a34.291,34.291,0,0,1-15.725-3.467,25.4,25.4,0,0,1-10.549-9.621,26.492,26.492,0,0,1-3.712-13.967,26.857,26.857,0,0,1,3.663-13.918,25.667,25.667,0,0,1,10.059-9.67,31.149,31.149,0,0,1,28.277-.146,24.253,24.253,0,0,1,9.816,9.523,28.414,28.414,0,0,1,3.565,14.405q0,.136-.062,1.02A3.319,3.319,0,0,1,821.878,1118.2ZM789.3,1101.3a11.657,11.657,0,0,0-2.643,3.128,3.3,3.3,0,0,0,2.924,4.883h16.692a3.3,3.3,0,0,0,2.917-4.888,12.06,12.06,0,0,0-2.6-3.073,12.855,12.855,0,0,0-8.6-2.979A13.121,13.121,0,0,0,789.3,1101.3Z" transform="translate(-33.01 -1052.7)"/>
    </g>
    <g transform="matrix(1, 0, 0, 1, 103.89, 1054.6)" filter="url(#Path_382)">
      <path id="Path_382-2" data-name="Path 382" d="M556.879,1118.2H525.353a3.313,3.313,0,0,0-2.608,5.371,12.792,12.792,0,0,0,2.536,2.345,16.814,16.814,0,0,0,9.962,2.833,20.161,20.161,0,0,0,7.278-1.222,16.535,16.535,0,0,0,3.7-2.009,3.294,3.294,0,0,1,4.336.457l3.807,4.128a3.324,3.324,0,0,1-.292,4.786q-7.169,6.068-19.218,6.069a34.29,34.29,0,0,1-15.725-3.467,25.4,25.4,0,0,1-10.549-9.621,26.492,26.492,0,0,1-3.712-13.967,26.856,26.856,0,0,1,3.663-13.918,25.666,25.666,0,0,1,10.059-9.67,31.149,31.149,0,0,1,28.277-.146,24.252,24.252,0,0,1,9.816,9.523,28.412,28.412,0,0,1,3.565,14.405q0,.136-.062,1.02A3.319,3.319,0,0,1,556.879,1118.2ZM524.3,1101.3a11.657,11.657,0,0,0-2.643,3.128,3.3,3.3,0,0,0,2.924,4.883h16.692a3.3,3.3,0,0,0,2.917-4.888,12.058,12.058,0,0,0-2.6-3.073,12.854,12.854,0,0,0-8.6-2.979A13.12,13.12,0,0,0,524.3,1101.3Z" transform="translate(-62.13 -1052.7)"/>
    </g>
    <g transform="matrix(1, 0, 0, 1, 103.89, 1054.6)" filter="url(#Path_383)">
      <path id="Path_383-2" data-name="Path 383" d="M275.878,1118.2H244.353a3.313,3.313,0,0,0-2.608,5.371,12.793,12.793,0,0,0,2.536,2.345,16.813,16.813,0,0,0,9.961,2.833,20.16,20.16,0,0,0,7.278-1.222,16.53,16.53,0,0,0,3.7-2.009,3.3,3.3,0,0,1,4.336.457l3.807,4.128a3.324,3.324,0,0,1-.292,4.786q-7.169,6.068-19.218,6.069a34.29,34.29,0,0,1-15.725-3.467,25.4,25.4,0,0,1-10.549-9.621,26.492,26.492,0,0,1-3.712-13.967,26.856,26.856,0,0,1,3.663-13.918,25.666,25.666,0,0,1,10.059-9.67,31.149,31.149,0,0,1,28.277-.146,24.252,24.252,0,0,1,9.816,9.523,28.412,28.412,0,0,1,3.565,14.405q0,.136-.062,1.02A3.319,3.319,0,0,1,275.878,1118.2ZM243.3,1101.3a11.658,11.658,0,0,0-2.643,3.128,3.3,3.3,0,0,0,2.924,4.883h16.692a3.3,3.3,0,0,0,2.917-4.888,12.057,12.057,0,0,0-2.6-3.073,12.854,12.854,0,0,0-8.6-2.979A13.121,13.121,0,0,0,243.3,1101.3Z" transform="translate(-93.02 -1052.7)"/>
    </g>
    <g transform="matrix(1, 0, 0, 1, 103.89, 1054.6)" filter="url(#Path_384)">
      <path id="Path_384-2" data-name="Path 384" d="M834.2,1139.345a40.829,40.829,0,0,1-6.986-2.413,3.432,3.432,0,0,1-1.62-4.562l2.175-4.685a3.463,3.463,0,0,1,4.626-1.653,36.3,36.3,0,0,0,5.419,1.982,35.563,35.563,0,0,0,9.767,1.417q9.67,0,9.67-4.787,0-2.244-2.637-3.223a39.2,39.2,0,0,0-8.107-1.659,78.156,78.156,0,0,1-10.645-2.247,16.523,16.523,0,0,1-7.277-4.493q-3.077-3.225-3.077-9.183a14.386,14.386,0,0,1,2.881-8.839,18.551,18.551,0,0,1,8.4-6.007,35.912,35.912,0,0,1,13.04-2.148,51.264,51.264,0,0,1,11.085,1.22,37.291,37.291,0,0,1,5.92,1.794,3.435,3.435,0,0,1,1.775,4.645l-2.15,4.591a3.42,3.42,0,0,1-4.417,1.733,30.572,30.572,0,0,0-12.212-2.457q-4.886,0-7.326,1.368t-2.442,3.516a3.49,3.49,0,0,0,2.637,3.419,46.741,46.741,0,0,0,8.4,1.856,90.2,90.2,0,0,1,10.549,2.294,15.876,15.876,0,0,1,7.13,4.444q3.027,3.225,3.028,8.987a13.877,13.877,0,0,1-2.93,8.693,18.706,18.706,0,0,1-8.546,5.908,38.072,38.072,0,0,1-13.332,2.1A51.036,51.036,0,0,1,834.2,1139.345Z" transform="translate(-26.92 -1052.7)"/>
    </g>
    <g transform="matrix(1, 0, 0, 1, 103.89, 1054.6)" filter="url(#Path_385)">
      <path id="Path_385-2" data-name="Path 385" d="M886.139,1137.49a25.762,25.762,0,0,1-10.3-9.621,28.136,28.136,0,0,1,0-27.934,25.762,25.762,0,0,1,10.3-9.621,33.624,33.624,0,0,1,29.741,0,25.86,25.86,0,0,1,10.255,9.621,28.135,28.135,0,0,1,0,27.934,25.86,25.86,0,0,1-10.255,9.621,33.622,33.622,0,0,1-29.741,0Zm24.516-12.99q3.759-3.956,3.76-10.6t-3.76-10.6a12.7,12.7,0,0,0-9.621-3.957,12.846,12.846,0,0,0-9.669,3.957q-3.809,3.956-3.811,10.6t3.811,10.6a12.85,12.85,0,0,0,9.669,3.956A12.7,12.7,0,0,0,910.655,1124.5Z" transform="translate(-21.77 -1052.7)"/>
    </g>
    <g transform="matrix(1, 0, 0, 1, 103.89, 1054.6)" filter="url(#Path_386)">
      <path id="Path_386-2" data-name="Path 386" d="M980.995,1092.707q6.005,5.858,6.007,17.385v28.167a1.916,1.916,0,0,1-1.915,1.916H973.678a1.915,1.915,0,0,1-1.914-1.916v-25.824q0-6.25-2.735-9.328t-7.911-3.076a12.13,12.13,0,0,0-9.181,3.564q-3.42,3.568-3.417,10.6v24.066a1.916,1.916,0,0,1-1.915,1.916H935.2a1.916,1.916,0,0,1-1.915-1.916v-48.717a1.915,1.915,0,0,1,1.915-1.914H945.92a1.915,1.915,0,0,1,1.916,1.914h0a1.905,1.905,0,0,0,2.99,1.578,21.406,21.406,0,0,1,4.53-2.467,26.211,26.211,0,0,1,9.866-1.807Q974.986,1086.847,980.995,1092.707Z" transform="translate(-15.05 -1052.7)"/>
    </g>
    <g transform="matrix(1, 0, 0, 1, 103.89, 1054.6)" filter="url(#Path_387)">
      <path id="Path_387-2" data-name="Path 387" d="M1034.376,1092.658q6.543,5.81,6.544,17.532v28.224a1.762,1.762,0,0,1-1.762,1.761h-10.738a1.761,1.761,0,0,1-1.76-1.761h0a1.752,1.752,0,0,0-2.875-1.352q-4.6,3.894-13.144,3.895a24.874,24.874,0,0,1-10.5-2.051,15.647,15.647,0,0,1-6.788-5.666,14.734,14.734,0,0,1-2.344-8.2,13.7,13.7,0,0,1,5.517-11.526q5.519-4.2,17.045-4.2H1023.8a1.778,1.778,0,0,0,1.739-2.062,8.956,8.956,0,0,0-2.885-5.605q-3.027-2.687-9.082-2.686a26.511,26.511,0,0,0-8.253,1.317,23.277,23.277,0,0,0-5.3,2.441,1.753,1.753,0,0,1-2.508-.671l-3.824-7.441a1.773,1.773,0,0,1,.655-2.319,34.425,34.425,0,0,1,8.926-3.778,46.172,46.172,0,0,1,12.356-1.66Q1027.832,1086.847,1034.376,1092.658Zm-12.99,36.235a9.824,9.824,0,0,0,4.176-5,1.824,1.824,0,0,0,.122-.667v-3.269a1.76,1.76,0,0,0-1.76-1.761h-8.691q-9.376,0-9.376,6.154a5.476,5.476,0,0,0,2.3,4.638,10.327,10.327,0,0,0,6.3,1.709A13.264,13.264,0,0,0,1021.386,1128.894Z" transform="translate(-8.7 -1052.7)"/>
    </g>
    <g transform="matrix(1, 0, 0, 1, 103.89, 1054.6)" filter="url(#Path_388)">
      <path id="Path_388-2" data-name="Path 388" d="M1082.295,1137.134a2.045,2.045,0,0,1-.889,2.525,17.108,17.108,0,0,1-4.028,1.541,27.944,27.944,0,0,1-6.886.83q-9.376,0-14.5-4.787t-5.128-14.065v-19.52a2.065,2.065,0,0,0-2.066-2.064h-3.977a2.065,2.065,0,0,1-2.064-2.064v-7.592a2.065,2.065,0,0,1,2.064-2.066h3.977a2.065,2.065,0,0,0,2.066-2.064v-8.666a2.065,2.065,0,0,1,2.064-2.065h11.108a2.065,2.065,0,0,1,2.064,2.065v8.666a2.064,2.064,0,0,0,2.065,2.064h8.959a2.065,2.065,0,0,1,2.064,2.066v7.592a2.065,2.065,0,0,1-2.064,2.064h-8.959a2.065,2.065,0,0,0-2.065,2.064v19.325a7.172,7.172,0,0,0,1.709,5.129,6.33,6.33,0,0,0,4.835,1.807,10.543,10.543,0,0,0,4.219-.815,2.079,2.079,0,0,1,2.8,1.13Z" transform="translate(-3.01 -1053.78)"/>
    </g>
    <g transform="matrix(1, 0, 0, 1, 103.89, 1054.6)" filter="url(#Path_389)">
      <path id="Path_389-2" data-name="Path 389" d="M1133.878,1118.2h-31.526a3.313,3.313,0,0,0-2.608,5.371,12.793,12.793,0,0,0,2.536,2.345,16.813,16.813,0,0,0,9.961,2.833,20.161,20.161,0,0,0,7.278-1.222,16.536,16.536,0,0,0,3.7-2.009,3.3,3.3,0,0,1,4.336.457l3.807,4.128a3.323,3.323,0,0,1-.292,4.786q-7.169,6.068-19.218,6.069a34.29,34.29,0,0,1-15.725-3.467,25.4,25.4,0,0,1-10.549-9.621,26.491,26.491,0,0,1-3.711-13.967,26.855,26.855,0,0,1,3.663-13.918,25.666,25.666,0,0,1,10.059-9.67,31.15,31.15,0,0,1,28.277-.146,24.255,24.255,0,0,1,9.816,9.523,28.412,28.412,0,0,1,3.565,14.405q0,.136-.062,1.02A3.319,3.319,0,0,1,1133.878,1118.2Zm-32.575-16.9a11.662,11.662,0,0,0-2.643,3.128,3.3,3.3,0,0,0,2.923,4.883h16.692a3.3,3.3,0,0,0,2.917-4.888,12.051,12.051,0,0,0-2.6-3.073,12.853,12.853,0,0,0-8.595-2.979A13.121,13.121,0,0,0,1101.3,1101.3Z" transform="translate(1.28 -1052.7)"/>
    </g>
    <g transform="matrix(1, 0, 0, 1, 103.89, 1054.6)" filter="url(#Path_390)">
      <path id="Path_390-2" data-name="Path 390" d="M626.295,1137.134a2.045,2.045,0,0,1-.889,2.525,17.107,17.107,0,0,1-4.028,1.541,27.944,27.944,0,0,1-6.886.83q-9.377,0-14.5-4.787t-5.128-14.065v-19.52a2.065,2.065,0,0,0-2.065-2.064h-3.977a2.065,2.065,0,0,1-2.064-2.064v-7.592a2.065,2.065,0,0,1,2.064-2.066h3.977a2.064,2.064,0,0,0,2.065-2.064v-8.666a2.065,2.065,0,0,1,2.065-2.065h11.108a2.065,2.065,0,0,1,2.065,2.065v8.666a2.064,2.064,0,0,0,2.064,2.064h8.959a2.065,2.065,0,0,1,2.064,2.066v7.592a2.065,2.065,0,0,1-2.064,2.064h-8.959a2.065,2.065,0,0,0-2.064,2.064v19.325a7.171,7.171,0,0,0,1.709,5.129,6.329,6.329,0,0,0,4.835,1.807,10.542,10.542,0,0,0,4.219-.815,2.079,2.079,0,0,1,2.8,1.13Z" transform="translate(-53.13 -1053.78)"/>
    </g>
    <g id="Group_327" data-name="Group 327" transform="translate(773.138 1072.78)">
      <g id="Group_325" data-name="Group 325" transform="translate(16.721)">
        <g transform="matrix(1, 0, 0, 1, -685.96, -18.18)" filter="url(#Path_391)">
          <path id="Path_391-2" data-name="Path 391" d="M753.24,1120.545a.539.539,0,0,1,.221-.8,22.766,22.766,0,0,0,13.824-21.856,24.3,24.3,0,0,0-3.7-13.518,24.048,24.048,0,0,0-10.562-8.807,38.993,38.993,0,0,0-16.169-3.1H725.7a1.685,1.685,0,0,0-1.685,1.685v9.738a1.686,1.686,0,0,0,1.668,1.685l10.274.1q7.306,0,11.11,3.156t3.8,9.059q0,5.8-3.8,9.007t-11.11,3.2H725.7a1.685,1.685,0,0,0-1.685,1.685v9.543a1.685,1.685,0,0,0,1.685,1.685H736.74a1.743,1.743,0,0,1,1.438.754l11.088,16.01a6.379,6.379,0,0,0,5.254,2.757h10.715a1.747,1.747,0,0,0,1.433-2.746Z" transform="translate(-38.05 -1054.28)"/>
        </g>
      </g>
      <g transform="matrix(1, 0, 0, 1, -669.24, -18.18)" filter="url(#Rectangle_6092)">
        <rect id="Rectangle_6092-2" data-name="Rectangle 6092" width="12.986" height="46.68" rx="1.809" transform="translate(669.24 41.43)" fill="#ca3745"/>
      </g>
      <g id="Group_326" data-name="Group 326" transform="translate(0.237 0.056)">
        <g transform="matrix(1, 0, 0, 1, -669.48, -18.24)" filter="url(#Path_392)">
          <path id="Path_392-2" data-name="Path 392" d="M715.568,1092.542h-.112c-.587,0-.979-.306-.979-.767v-2.191c-3.666-.2-5.318-1.512-5.318-3.637v-.569c0-.242.168-.4.5-.4h1.288c.28,0,.475.132.475.373v.569c0,1.534,1.26,2.256,4.03,2.256,2.715,0,4.058-.745,4.058-2.3v-.438c0-1.446-.9-1.754-2.546-1.972l-3.414-.461c-2.855-.394-4.254-1.161-4.254-3.505v-.373c0-2.257,1.624-3.68,5.178-3.9v-1.95c0-.459.392-.767.979-.767h.112c.587,0,.979.307.979.767v1.972c3.471.2,5.038,1.489,5.038,3.572v.459c0,.263-.2.4-.5.4h-1.26c-.335,0-.532-.132-.532-.373v-.461c0-1.512-1.148-2.212-3.834-2.212-2.63,0-3.89.745-3.89,2.3v.4c0,1.446.868,1.753,2.519,1.972l3.442.46c2.826.373,4.281,1.161,4.281,3.506v.372c0,2.258-1.707,3.7-5.261,3.922v2.213C716.547,1092.236,716.155,1092.542,715.568,1092.542Z" transform="translate(-39.68 -1054.28)" fill="#ca3745" stroke="#ca3745" stroke-miterlimit="10" stroke-width="1.5"/>
        </g>
      </g>
    </g>
  </g>
</svg>
